<svg width="283" height="204" viewBox="0 0 283 204" fill="none" xmlns="http://www.w3.org/2000/svg">
<path d="M203.837 100.343C203.902 99.5604 203.902 98.7128 203.902 97.8652C203.902 73.676 184.277 54.0508 160.088 54.0508C141.245 54.0508 125.141 65.9824 119.012 82.7388C111.384 80.6524 103.364 79.4788 95.0185 79.4788C45.3361 79.4788 5.04248 119.772 5.04248 169.455C5.04248 181.126 7.25928 192.275 11.3017 202.511H254.563C262.322 191.884 266.886 178.844 266.886 164.695C266.886 129.552 238.784 100.995 203.837 100.343Z" fill="#CACAFF"/>
<path d="M1 202.511H266.886" stroke="#130F40" stroke-width="0.75" stroke-miterlimit="10" stroke-linecap="round" stroke-linejoin="round"/>
<path d="M24.6677 86.4561C24.6677 86.4561 35.9473 147.483 37.0557 187.842" stroke="#B3B3FF" stroke-miterlimit="10" stroke-linecap="round" stroke-linejoin="round"/>
<path d="M30.5357 88.0205C28.2537 89.7809 25.2545 90.4329 22.3857 89.8461C19.2561 89.1941 15.4093 87.8901 15.0181 85.6081C14.3661 81.6309 21.6033 83.7825 21.6033 83.7825C21.6033 83.7825 15.3441 80.6529 16.5829 75.9585C17.8217 71.2641 23.5593 76.0889 23.8853 79.4793C23.8853 79.4793 24.3417 74.5241 28.3841 74.9805C32.4265 75.4369 28.3841 82.7393 28.3841 82.7393C28.3841 82.7393 30.6009 80.1313 32.2961 81.0441C33.9913 81.9569 32.1657 85.4125 29.1665 87.1077C29.1665 87.1077 32.9481 86.1297 30.5357 88.0205Z" fill="#6A6AE2"/>
<path d="M16.3872 202.512C16.3872 202.512 10.78 186.277 12.1492 166.065L23.3636 187.842C23.3636 187.842 19.7776 149.439 20.4296 121.859C20.4296 121.859 33.0132 159.349 37.0556 182.887C37.0556 182.887 32.8176 139.333 40.8372 104.125C40.8372 104.125 45.988 148.331 45.5316 174.802C45.5316 174.802 47.3572 146.049 64.8308 119.512L59.68 178.192C59.68 178.192 64.9612 166.326 73.1764 158.437L65.7436 202.512H16.3872Z" fill="#B3B3FF"/>
<path d="M50.2912 106.081C50.2912 106.081 46.1836 151.786 46.1836 182.952" stroke="#B3B3FF" stroke-miterlimit="10" stroke-linecap="round" stroke-linejoin="round"/>
<path d="M55.8984 108.689C52.834 110.449 48.9872 109.732 46.5748 107.189C45.5316 106.081 44.358 104.712 43.2496 103.277C40.446 99.4305 43.4452 97.4093 45.9228 100.669C45.9228 100.669 42.4672 95.8445 45.9228 92.5845C49.3784 89.3245 49.7696 99.6913 49.7696 99.6913C49.7696 99.6913 50.878 92.7801 54.79 94.1493C58.702 95.5185 54.138 103.277 54.138 103.277C54.138 103.277 56.6156 100.343 57.9196 101.778C59.2888 103.147 57.2676 105.951 54.2032 107.124C54.2032 107.124 56.5504 105.885 57.072 107.124C57.3328 107.581 56.8764 108.167 55.8984 108.689Z" fill="#6A6AE2"/>
<path d="M226.853 137.376H53.4209V202.511H226.853V137.376Z" fill="#6A6AE2"/>
<path d="M74.0892 47.4004H71.5464V138.289H74.0892V47.4004Z" fill="#4E4ECE"/>
<path d="M208.662 47.4004H206.119V138.289H208.662V47.4004Z" fill="#4E4ECE"/>
<path d="M78.197 33.6436V40.4896C78.197 45.4448 82.2394 49.4872 87.1946 49.4872H93.9754C98.9306 49.4872 102.973 45.4448 102.973 40.4896V33.6436H78.197Z" fill="#4E4ECE"/>
<path d="M53.4209 33.6436V40.4896C53.4209 45.4448 57.4633 49.4872 62.4185 49.4872H69.1993C74.1545 49.4872 78.1969 45.4448 78.1969 40.4896V33.6436H53.4209Z" fill="#B3B3FF"/>
<path d="M102.908 33.6436V40.4896C102.908 45.4448 106.95 49.4872 111.905 49.4872H118.686C123.641 49.4872 127.684 45.4448 127.684 40.4896V33.6436H102.908Z" fill="#B3B3FF"/>
<path d="M177.236 33.6436V40.4896C177.236 45.4448 181.278 49.4872 186.233 49.4872H193.014C197.969 49.4872 202.012 45.4448 202.012 40.4896V33.6436H177.236Z" fill="#4E4ECE"/>
<path d="M211.009 49.4217H217.79C222.745 49.4217 226.788 45.3793 226.788 40.4241V33.5781H202.012V40.4241C202.012 45.3793 206.054 49.4217 211.009 49.4217Z" fill="#B3B3FF"/>
<path d="M127.684 33.6436V40.4896C127.684 45.4448 131.726 49.4872 136.681 49.4872H143.462C148.417 49.4872 152.46 45.4448 152.46 40.4896V33.6436H127.684Z" fill="#4E4ECE"/>
<path d="M152.46 33.6436V40.4896C152.46 45.4448 156.502 49.4872 161.457 49.4872H168.238C173.193 49.4872 177.236 45.4448 177.236 40.4896V33.6436H152.46Z" fill="#B3B3FF"/>
<path d="M99.7782 6.71582L78.197 33.6434H102.908L115.883 6.71582H99.7782Z" fill="#6A6AE2"/>
<path d="M83.6737 6.71582L53.4209 33.6434H78.1969L99.7781 6.71582H83.6737Z" fill="#CACAFF"/>
<path d="M115.883 6.71582L102.908 33.6434H127.684L132.052 6.71582H115.883Z" fill="#CACAFF"/>
<path d="M164.261 6.71582L177.236 33.6434H202.012L180.431 6.71582H164.261Z" fill="#6A6AE2"/>
<path d="M202.012 33.6434H226.788L196.535 6.71582H180.43L202.012 33.6434Z" fill="#CACAFF"/>
<path d="M132.052 6.71582L127.684 33.6434H152.46L148.156 6.71582H132.052Z" fill="#6A6AE2"/>
<path d="M148.156 6.71582L152.46 33.6434H177.236L164.261 6.71582H148.156Z" fill="#CACAFF"/>
<path d="M164.848 0H115.361V25.8844H164.848V0Z" fill="#4E4ECE"/>
<path d="M129.287 11.074C129.223 10.5343 128.964 10.1152 128.509 9.81694C128.055 9.51864 127.497 9.3695 126.837 9.3695C126.354 9.3695 125.931 9.44762 125.569 9.60387C125.21 9.76012 124.93 9.97496 124.727 10.2484C124.528 10.5218 124.429 10.8326 124.429 11.1806C124.429 11.4718 124.498 11.7221 124.637 11.9316C124.779 12.1376 124.96 12.3098 125.18 12.4483C125.4 12.5833 125.631 12.6951 125.873 12.7839C126.114 12.8691 126.336 12.9384 126.538 12.9917L127.646 13.29C127.93 13.3645 128.246 13.4675 128.594 13.5989C128.946 13.7303 129.282 13.9096 129.601 14.1369C129.924 14.3606 130.191 14.6483 130.4 14.9998C130.61 15.3514 130.714 15.7828 130.714 16.2942C130.714 16.8837 130.56 17.4164 130.251 17.8922C129.946 18.3681 129.498 18.7463 128.909 19.0268C128.323 19.3074 127.611 19.4476 126.773 19.4476C125.991 19.4476 125.315 19.3216 124.743 19.0694C124.175 18.8173 123.728 18.4657 123.401 18.0147C123.078 17.5637 122.895 17.04 122.852 16.4434H124.216C124.251 16.8553 124.39 17.1962 124.631 17.4661C124.876 17.7324 125.185 17.9313 125.558 18.0627C125.935 18.1905 126.339 18.2544 126.773 18.2544C127.277 18.2544 127.73 18.1728 128.131 18.0094C128.532 17.8425 128.85 17.6117 129.085 17.3169C129.319 17.0186 129.436 16.6706 129.436 16.2729C129.436 15.9107 129.335 15.6159 129.132 15.3887C128.93 15.1614 128.664 14.9767 128.333 14.8347C128.003 14.6926 127.646 14.5684 127.263 14.4618L125.92 14.0783C125.068 13.8333 124.393 13.4835 123.896 13.0289C123.399 12.5744 123.151 11.9796 123.151 11.2445C123.151 10.6337 123.316 10.101 123.646 9.64648C123.98 9.18839 124.427 8.83327 124.988 8.58114C125.553 8.32546 126.183 8.19762 126.879 8.19762C127.582 8.19762 128.207 8.32369 128.754 8.57582C129.301 8.8244 129.734 9.1653 130.054 9.59854C130.377 10.0318 130.548 10.5236 130.565 11.074H129.287ZM133.334 19.2559H131.949L135.955 8.34677H137.318L141.324 19.2559H139.939L136.679 10.0726H136.594L133.334 19.2559ZM133.845 14.9945H139.428V16.1664H133.845V14.9945ZM143.023 19.2559V8.34677H144.344V18.084H149.415V19.2559H143.023ZM151.461 19.2559V8.34677H158.044V9.51864H152.782V13.2047H157.704V14.3766H152.782V18.084H158.13V19.2559H151.461Z" fill="white"/>
<path d="M69.2646 156.35L72.7855 173.562L86.1515 162.152C83.3479 161.435 80.3487 160.588 77.2191 159.479C74.2851 158.436 71.677 157.393 69.2646 156.35Z" fill="#F4CC4D"/>
<path d="M88.6292 162.805L95.2143 179.105L106.298 165.478L88.6292 162.805Z" fill="white"/>
<path d="M109.689 165.804L118.491 180.995L127.554 165.934L109.689 165.804Z" fill="#F4CC4D"/>
<path d="M131.205 165.738L141.832 179.756L148.939 163.717L131.205 165.738Z" fill="white"/>
<path d="M151.743 163.261L164 175.78L169.086 158.958L151.743 163.261Z" fill="#F4CC4D"/>
<path d="M59.6802 150.547C59.6802 150.547 77.545 165.934 120.577 165.934C163.609 165.934 190.276 150.547 190.276 150.547" stroke="#130F40" stroke-width="0.75" stroke-miterlimit="10" stroke-linecap="round" stroke-linejoin="round"/>
<path d="M60.6581 150.547C60.6581 151.134 60.2017 151.525 59.6801 151.525C59.0933 151.525 58.7021 151.068 58.7021 150.547C58.7021 150.025 59.1585 149.569 59.6801 149.569C60.2669 149.504 60.6581 149.96 60.6581 150.547Z" fill="#130F40"/>
<path d="M191.319 150.351C191.319 150.938 190.863 151.329 190.341 151.329C189.754 151.329 189.363 150.873 189.363 150.351C189.363 149.765 189.819 149.373 190.341 149.373C190.863 149.308 191.319 149.765 191.319 150.351Z" fill="#130F40"/>
<path d="M134.79 137.376H115.882C114.383 137.376 113.209 136.137 113.209 134.703V122.771H137.529V134.703C137.464 136.137 136.225 137.376 134.79 137.376Z" fill="#4E4ECE"/>
<path d="M149.135 129.813H133.812C133.226 129.813 132.704 129.357 132.704 128.705V128.64C132.704 128.053 133.16 127.531 133.812 127.531H149.135V129.813Z" fill="#6A6AE2"/>
<path d="M150.047 127.139V130.204H140.658C140.593 130.204 140.528 130.204 140.528 130.204C139.68 130.204 138.963 129.487 138.963 128.639C138.963 127.791 139.68 127.074 140.528 127.074H150.047V127.139Z" fill="#4E4ECE"/>
<path d="M151.612 128.704C151.612 129.552 150.895 130.269 150.047 130.269C149.2 130.269 148.482 129.552 148.482 128.704C148.482 127.857 149.2 127.14 150.047 127.14C150.895 127.14 151.612 127.857 151.612 128.704Z" fill="#6A6AE2"/>
<path d="M65.5556 79.4447L59.2842 80.6689L66.9794 120.089L73.2508 118.865L65.5556 79.4447Z" fill="#4E4ECE"/>
<path d="M66.3306 83.4561L63.9834 83.9125" stroke="#130F40" stroke-width="0.75" stroke-miterlimit="10" stroke-linecap="round" stroke-linejoin="round"/>
<path d="M67.2435 87.8896L64.8311 88.4113" stroke="#130F40" stroke-width="0.75" stroke-miterlimit="10" stroke-linecap="round" stroke-linejoin="round"/>
<path d="M68.0911 92.3887L65.7439 92.8451" stroke="#130F40" stroke-width="0.75" stroke-miterlimit="10" stroke-linecap="round" stroke-linejoin="round"/>
<path d="M69.0037 96.8877L66.5913 97.3441" stroke="#130F40" stroke-width="0.75" stroke-miterlimit="10" stroke-linecap="round" stroke-linejoin="round"/>
<path d="M69.8514 101.321L67.5042 101.843" stroke="#130F40" stroke-width="0.75" stroke-miterlimit="10" stroke-linecap="round" stroke-linejoin="round"/>
<path d="M70.699 105.819L68.3518 106.276" stroke="#130F40" stroke-width="0.75" stroke-miterlimit="10" stroke-linecap="round" stroke-linejoin="round"/>
<path d="M71.6119 110.318L69.1995 110.775" stroke="#130F40" stroke-width="0.75" stroke-miterlimit="10" stroke-linecap="round" stroke-linejoin="round"/>
<path d="M72.4595 114.752L70.1123 115.208" stroke="#130F40" stroke-width="0.75" stroke-miterlimit="10" stroke-linecap="round" stroke-linejoin="round"/>
<path d="M91.5628 98.3864H87.3248L86.738 96.7564L84.5212 94.4092H88.7592C89.5416 94.4092 90.2588 94.8656 90.5196 95.5828L91.5628 98.3864Z" fill="#FF8E77"/>
<path d="M88.8246 119.968H84.5866C80.0878 110.057 81.8482 99.6254 82.6958 95.909C82.8262 95.4526 83.0218 95.1266 83.3478 94.8658C83.6738 94.605 84.065 94.4746 84.5214 94.4746C85.3038 94.4746 86.021 94.931 86.2818 95.6482L86.7382 96.7566C85.8906 101.125 84.6518 110.775 88.8246 119.968Z" fill="#EB4D4B"/>
<path d="M83.087 98.3864H78.849L78.2622 96.7564L76.0454 94.4092H80.2834C81.0658 94.4092 81.783 94.8656 82.0438 95.5828L83.087 98.3864Z" fill="#FF8E77"/>
<path d="M80.3485 119.968H76.1105C71.6117 110.057 73.3721 99.6254 74.2197 95.909C74.3501 95.4526 74.5457 95.1266 74.8717 94.8658C75.1977 94.605 75.5889 94.4746 76.0453 94.4746C76.8277 94.4746 77.5449 94.931 77.8057 95.6482L78.2621 96.7566C77.3493 101.125 76.1757 110.775 80.3485 119.968Z" fill="#EB4D4B"/>
<path d="M98.9958 121.076H79.1098L78.2622 97.6689H91.889C92.541 97.6689 93.1278 97.9949 93.4538 98.5817C95.2142 102.037 101.213 114.36 98.9958 121.076Z" fill="#ED6756"/>
<path d="M76.5017 121.076V99.4293C76.5017 98.4513 77.2841 97.6689 78.2621 97.6689C78.9141 97.6689 79.5009 97.9949 79.8269 98.5817C81.6525 102.037 87.5857 114.36 85.3689 121.011H76.5017V121.076Z" fill="#FF8E77"/>
<path d="M82.6306 104.776H96.2574" stroke="#130F40" stroke-width="0.75" stroke-miterlimit="10" stroke-linecap="round" stroke-linejoin="round"/>
<path d="M87.5857 106.667H85.6949L84.1301 102.95H85.9557L87.5857 106.667Z" fill="#FF8E77"/>
<path d="M95.0186 106.667H93.193L91.563 102.95H93.4538L95.0186 106.667Z" fill="#FF8E77"/>
<path d="M102.712 116.187H83.804V137.377H102.712V116.187Z" fill="#4E4ECE"/>
<path d="M83.804 116.187H60.5928V137.377H83.804V116.187Z" fill="#6A6AE2"/>
<path d="M80.3484 121.011H57.1372L60.5928 116.187H83.804L80.3484 121.011Z" fill="#B3B3FF"/>
<path d="M87.1944 121.011H106.102L102.712 116.187H83.804L87.1944 121.011Z" fill="#6A6AE2"/>
<path d="M60.5928 137.376H83.804" stroke="#130F40" stroke-width="0.75" stroke-miterlimit="10" stroke-linecap="round" stroke-linejoin="round"/>
<path d="M249.347 96.1045L224.31 202.511" stroke="#130F40" stroke-miterlimit="10" stroke-linecap="round" stroke-linejoin="round"/>
<path d="M240.415 202.511L248.239 85.2812L282.403 202.511" stroke="#130F40" stroke-miterlimit="10" stroke-linecap="round" stroke-linejoin="round"/>
<path d="M280.317 184.255H238.393L228.026 91.6709H269.95L280.317 184.255Z" fill="#54C3EA"/>
<path d="M235.223 105.39L234.331 97.4403H239.128L239.224 98.2943H235.396L235.697 100.981H239.166L239.262 101.835H235.793L236.192 105.39H235.223ZM241.679 105.39L240.787 97.4403H241.756L242.552 104.536H246.271L246.367 105.39H241.679ZM247.867 105.39L246.975 97.4403H251.803L251.899 98.2943H248.039L248.341 100.981H251.95L252.046 101.835H248.436L248.74 104.536H252.661L252.757 105.39H247.867ZM254.769 105.39H253.753L255.799 97.4403H256.799L260.628 105.39H259.613L256.471 98.698H256.409L254.769 105.39ZM254.796 102.285H258.889L258.985 103.139H254.891L254.796 102.285Z" fill="#171659"/>
<path d="M235.389 110.532H236.23L238.746 115.332H238.814L240.253 110.532H241.094L241.742 116.314H241.083L240.59 111.921H240.533L239.208 116.314H238.572L236.261 111.921H236.204L236.697 116.314H236.038L235.389 110.532ZM243.393 116.314H242.655L244.143 110.532H244.87L247.655 116.314H246.916L244.632 111.447H244.586L243.393 116.314ZM243.413 114.056H246.39L246.46 114.677H243.483L243.413 114.056ZM248.561 116.314L247.912 110.532H249.878C250.333 110.532 250.715 110.61 251.024 110.764C251.332 110.916 251.572 111.126 251.742 111.394C251.912 111.661 252.016 111.965 252.055 112.305C252.093 112.646 252.057 112.948 251.946 113.212C251.835 113.475 251.644 113.682 251.371 113.833C251.098 113.981 250.736 114.056 250.285 114.056H248.694L248.623 113.423H250.191C250.502 113.423 250.747 113.378 250.926 113.288C251.107 113.198 251.231 113.07 251.298 112.904C251.366 112.736 251.387 112.537 251.361 112.305C251.335 112.074 251.269 111.872 251.163 111.698C251.056 111.525 250.902 111.392 250.7 111.298C250.498 111.202 250.24 111.154 249.925 111.154H248.687L249.266 116.314H248.561ZM251.008 113.717L252.732 116.314H251.913L250.213 113.717H251.008ZM253.678 116.314L253.03 110.532H253.734L254.056 113.401H254.124L256.416 110.532H257.336L255.186 113.141L257.985 116.314H257.133L254.809 113.627L254.173 114.44L254.383 116.314H253.678ZM258.897 116.314L258.248 110.532H261.76L261.829 111.154H259.023L259.242 113.107H261.867L261.936 113.728H259.311L259.532 115.693H262.384L262.454 116.314H258.897ZM262.781 111.154L262.711 110.532H267.075L267.145 111.154H265.315L265.894 116.314H265.19L264.611 111.154H262.781Z" fill="white"/>
<path d="M240.298 120.276C240.223 119.954 240.04 119.705 239.747 119.527C239.454 119.349 239.11 119.26 238.714 119.26C238.424 119.26 238.175 119.307 237.969 119.4C237.764 119.493 237.61 119.621 237.507 119.784C237.406 119.947 237.367 120.132 237.39 120.34C237.41 120.513 237.468 120.663 237.565 120.788C237.664 120.91 237.784 121.013 237.926 121.096C238.067 121.176 238.213 121.243 238.363 121.296C238.514 121.347 238.652 121.388 238.777 121.42L239.462 121.598C239.637 121.642 239.834 121.703 240.051 121.782C240.271 121.86 240.484 121.967 240.691 122.103C240.9 122.236 241.079 122.407 241.228 122.617C241.378 122.827 241.469 123.084 241.504 123.389C241.543 123.74 241.486 124.058 241.332 124.342C241.181 124.625 240.938 124.851 240.603 125.018C240.27 125.186 239.852 125.269 239.349 125.269C238.881 125.269 238.466 125.194 238.106 125.044C237.749 124.893 237.457 124.684 237.23 124.415C237.006 124.146 236.862 123.834 236.796 123.478H237.614C237.663 123.723 237.769 123.927 237.932 124.088C238.097 124.246 238.296 124.365 238.528 124.443C238.762 124.52 239.01 124.558 239.27 124.558C239.572 124.558 239.838 124.509 240.068 124.412C240.298 124.312 240.473 124.174 240.594 123.999C240.715 123.821 240.762 123.613 240.735 123.376C240.711 123.16 240.63 122.984 240.494 122.849C240.357 122.713 240.185 122.603 239.977 122.519C239.77 122.434 239.547 122.36 239.31 122.296L238.479 122.068C237.951 121.922 237.523 121.713 237.194 121.442C236.865 121.171 236.677 120.816 236.627 120.378C236.586 120.014 236.65 119.696 236.818 119.425C236.987 119.152 237.232 118.94 237.552 118.79C237.873 118.637 238.243 118.561 238.661 118.561C239.083 118.561 239.466 118.636 239.811 118.787C240.156 118.935 240.439 119.138 240.659 119.397C240.882 119.655 241.017 119.948 241.065 120.276H240.298ZM246.57 118.65H247.363L247.846 122.957C247.896 123.402 247.835 123.799 247.664 124.148C247.494 124.495 247.229 124.769 246.871 124.971C246.511 125.17 246.075 125.269 245.562 125.269C245.048 125.269 244.59 125.17 244.186 124.971C243.782 124.769 243.455 124.495 243.205 124.148C242.957 123.799 242.808 123.402 242.758 122.957L242.275 118.65H243.068L243.544 122.893C243.579 123.211 243.681 123.494 243.85 123.741C244.018 123.987 244.24 124.181 244.516 124.323C244.794 124.462 245.115 124.532 245.479 124.532C245.843 124.532 246.149 124.462 246.395 124.323C246.641 124.181 246.82 123.987 246.931 123.741C247.044 123.494 247.082 123.211 247.047 122.893L246.57 118.65ZM249.676 125.155L248.946 118.65H251.158C251.671 118.65 252.101 118.742 252.448 118.926C252.796 119.109 253.067 119.355 253.26 119.667C253.452 119.978 253.57 120.325 253.613 120.708C253.656 121.092 253.616 121.44 253.494 121.753C253.373 122.067 253.161 122.316 252.855 122.503C252.55 122.687 252.143 122.779 251.634 122.779H250.048L249.97 122.08H251.53C251.881 122.08 252.157 122.02 252.356 121.899C252.556 121.779 252.692 121.616 252.765 121.41C252.84 121.203 252.862 120.969 252.833 120.708C252.804 120.448 252.729 120.215 252.608 120.01C252.489 119.804 252.315 119.643 252.087 119.527C251.858 119.408 251.566 119.349 251.21 119.349H249.817L250.468 125.155H249.676ZM255.389 125.155L254.659 118.65H258.609L258.687 119.349H255.53L255.776 121.547H258.73L258.808 122.246H255.855L256.103 124.456H259.312L259.39 125.155H255.389ZM260.768 125.155L260.038 118.65H262.249C262.761 118.65 263.19 118.737 263.538 118.911C263.885 119.082 264.155 119.318 264.346 119.619C264.537 119.92 264.655 120.262 264.698 120.645C264.741 121.028 264.7 121.368 264.575 121.664C264.451 121.961 264.235 122.194 263.928 122.363C263.621 122.53 263.214 122.614 262.707 122.614H260.917L260.837 121.902H262.601C262.951 121.902 263.226 121.852 263.428 121.75C263.632 121.648 263.771 121.504 263.846 121.318C263.923 121.13 263.947 120.905 263.918 120.645C263.889 120.384 263.814 120.157 263.694 119.962C263.574 119.767 263.401 119.617 263.174 119.511C262.946 119.403 262.656 119.349 262.302 119.349H260.909L261.56 125.155H260.768ZM263.521 122.233L265.459 125.155H264.539L262.626 122.233H263.521Z" fill="white"/>
<path d="M242.544 129.593C242.445 129.164 242.2 128.831 241.81 128.594C241.42 128.357 240.96 128.238 240.432 128.238C240.046 128.238 239.714 128.3 239.439 128.425C239.166 128.549 238.96 128.72 238.823 128.937C238.688 129.154 238.636 129.401 238.667 129.678C238.693 129.91 238.771 130.109 238.9 130.275C239.032 130.439 239.193 130.576 239.381 130.686C239.569 130.793 239.764 130.882 239.965 130.953C240.166 131.021 240.35 131.076 240.516 131.118L241.429 131.355C241.663 131.414 241.925 131.496 242.215 131.601C242.508 131.705 242.793 131.848 243.069 132.028C243.347 132.206 243.586 132.435 243.785 132.714C243.984 132.994 244.106 133.337 244.152 133.743C244.204 134.212 244.128 134.636 243.924 135.014C243.722 135.392 243.398 135.693 242.951 135.916C242.507 136.139 241.95 136.25 241.28 136.25C240.655 136.25 240.102 136.15 239.622 135.95C239.145 135.749 238.756 135.47 238.454 135.111C238.156 134.753 237.963 134.336 237.875 133.862H238.966C239.031 134.19 239.173 134.461 239.39 134.675C239.61 134.887 239.875 135.045 240.185 135.149C240.497 135.251 240.827 135.302 241.173 135.302C241.577 135.302 241.932 135.237 242.238 135.107C242.544 134.974 242.778 134.791 242.939 134.557C243.1 134.319 243.163 134.043 243.127 133.727C243.095 133.439 242.988 133.204 242.805 133.024C242.623 132.843 242.394 132.696 242.117 132.583C241.84 132.47 241.543 132.371 241.227 132.287L240.119 131.982C239.415 131.787 238.844 131.509 238.406 131.148C237.968 130.786 237.716 130.313 237.65 129.729C237.596 129.243 237.68 128.82 237.904 128.458C238.13 128.094 238.456 127.812 238.883 127.612C239.312 127.408 239.805 127.307 240.361 127.307C240.924 127.307 241.435 127.407 241.895 127.607C242.355 127.805 242.732 128.076 243.026 128.42C243.323 128.765 243.504 129.156 243.567 129.593H242.544ZM246.512 136.098H245.404L247.635 127.425H248.726L252.904 136.098H251.796L248.369 128.797H248.3L246.512 136.098ZM246.541 132.71H251.006L251.111 133.642H246.645L246.541 132.71ZM254.263 136.098L253.29 127.425H254.347L255.215 135.166H259.272L259.377 136.098H254.263ZM261.013 136.098L260.04 127.425H265.307L265.411 128.357H261.201L261.53 131.287H265.468L265.572 132.219H261.635L261.965 135.166H266.244L266.348 136.098H261.013Z" fill="#171659"/>
<path d="M271.45 164.238L275.883 161.369L270.798 158.501L273.601 154.067L268.059 153.219L268.776 147.873L263.56 149.242L262.126 143.765L258.018 147.025L254.628 142.331L252.346 147.025L247.521 143.765L247.326 149.242L241.784 147.873L243.74 153.219L238.328 154.067L242.11 158.501L237.741 161.369L242.762 164.238L239.958 168.672L245.565 169.519L244.848 174.866L250.064 173.562L251.498 178.973L255.541 175.713L258.931 180.473L261.278 175.713L266.103 178.973L266.299 173.562L271.776 174.866L269.885 169.519L275.231 168.672L271.45 164.238Z" fill="#6A6AE2"/>
<path d="M247.633 151.508H248.69L249.334 157.251C249.401 157.843 249.32 158.373 249.091 158.839C248.864 159.302 248.512 159.667 248.033 159.935C247.555 160.201 246.973 160.333 246.288 160.333C245.604 160.333 244.992 160.201 244.454 159.935C243.915 159.667 243.479 159.302 243.146 158.839C242.815 158.373 242.617 157.843 242.55 157.251L241.906 151.508H242.963L243.598 157.166C243.645 157.589 243.781 157.966 244.006 158.297C244.23 158.624 244.526 158.882 244.894 159.072C245.264 159.258 245.692 159.351 246.178 159.351C246.664 159.351 247.071 159.258 247.4 159.072C247.728 158.882 247.966 158.624 248.114 158.297C248.264 157.966 248.316 157.589 248.268 157.166L247.633 151.508ZM251.911 162.62L250.908 153.676H251.879L251.995 154.71H252.114C252.176 154.597 252.262 154.453 252.373 154.278C252.486 154.1 252.659 153.942 252.891 153.803C253.125 153.662 253.455 153.592 253.881 153.592C254.432 153.592 254.933 153.729 255.384 154.002C255.836 154.276 256.207 154.665 256.499 155.167C256.792 155.67 256.976 156.262 257.053 156.946C257.13 157.635 257.079 158.232 256.9 158.737C256.721 159.24 256.438 159.629 256.051 159.906C255.664 160.18 255.198 160.317 254.653 160.317C254.232 160.317 253.888 160.247 253.619 160.109C253.351 159.968 253.138 159.808 252.982 159.631C252.825 159.45 252.703 159.3 252.616 159.182H252.531L252.917 162.62H251.911ZM252.261 156.929C252.316 157.42 252.437 157.853 252.624 158.229C252.811 158.601 253.055 158.894 253.358 159.105C253.659 159.314 254.012 159.419 254.415 159.419C254.836 159.419 255.174 159.309 255.431 159.088C255.69 158.865 255.869 158.566 255.969 158.191C256.072 157.812 256.097 157.392 256.045 156.929C255.994 156.471 255.877 156.059 255.693 155.692C255.513 155.322 255.268 155.03 254.96 154.816C254.654 154.598 254.289 154.489 253.862 154.489C253.453 154.489 253.121 154.593 252.866 154.799C252.61 155.002 252.432 155.287 252.331 155.654C252.23 156.018 252.207 156.443 252.261 156.929ZM264.442 153.676L264.537 154.523H261.145L261.05 153.676H264.442ZM261.863 152.118H262.869L263.565 158.318C263.596 158.6 263.661 158.812 263.759 158.953C263.86 159.091 263.979 159.184 264.115 159.232C264.253 159.278 264.396 159.3 264.544 159.3C264.655 159.3 264.745 159.295 264.815 159.283C264.884 159.269 264.94 159.258 264.982 159.249L265.287 160.147C265.222 160.173 265.129 160.198 265.01 160.223C264.891 160.252 264.738 160.266 264.55 160.266C264.266 160.266 263.981 160.205 263.695 160.084C263.411 159.962 263.166 159.777 262.959 159.529C262.755 159.28 262.632 158.967 262.589 158.589L261.863 152.118ZM269.288 160.317C268.697 160.317 268.163 160.177 267.686 159.897C267.211 159.618 266.821 159.227 266.514 158.724C266.211 158.222 266.021 157.635 265.946 156.963C265.87 156.285 265.927 155.694 266.118 155.188C266.311 154.683 266.613 154.29 267.025 154.011C267.44 153.731 267.943 153.592 268.534 153.592C269.125 153.592 269.657 153.731 270.132 154.011C270.609 154.29 271 154.683 271.304 155.188C271.61 155.694 271.802 156.285 271.878 156.963C271.953 157.635 271.894 158.222 271.7 158.724C271.51 159.227 271.207 159.618 270.792 159.897C270.38 160.177 269.879 160.317 269.288 160.317ZM269.187 159.419C269.636 159.419 269.993 159.304 270.257 159.076C270.521 158.847 270.702 158.546 270.799 158.174C270.897 157.801 270.921 157.397 270.872 156.963C270.823 156.528 270.708 156.123 270.527 155.747C270.346 155.372 270.097 155.068 269.781 154.837C269.466 154.605 269.083 154.489 268.634 154.489C268.186 154.489 267.829 154.605 267.565 154.837C267.302 155.068 267.121 155.372 267.024 155.747C266.927 156.123 266.903 156.528 266.952 156.963C267 157.397 267.115 157.801 267.296 158.174C267.477 158.546 267.726 158.847 268.041 159.076C268.356 159.304 268.739 159.419 269.187 159.419ZM250.379 175.206C249.879 175.206 249.418 175.107 248.995 174.91C248.572 174.712 248.221 174.441 247.941 174.097C247.66 173.752 247.484 173.36 247.412 172.919H248.435C248.519 173.312 248.734 173.636 249.081 173.893C249.431 174.147 249.828 174.274 250.274 174.274C250.632 174.274 250.941 174.191 251.201 174.025C251.464 173.858 251.658 173.629 251.785 173.339C251.914 173.045 251.957 172.713 251.916 172.343C251.873 171.965 251.752 171.628 251.551 171.331C251.352 171.032 251.099 170.796 250.79 170.624C250.481 170.452 250.14 170.364 249.767 170.361C249.5 170.359 249.23 170.4 248.959 170.484C248.687 170.566 248.467 170.672 248.3 170.802L247.298 170.683L247.347 166.415H251.881L251.986 167.346H248.338L248.318 169.904H248.369C248.532 169.763 248.744 169.646 249.003 169.553C249.263 169.459 249.539 169.413 249.831 169.413C250.365 169.413 250.855 169.54 251.302 169.794C251.75 170.045 252.118 170.39 252.406 170.827C252.697 171.265 252.874 171.765 252.937 172.326C252.999 172.88 252.929 173.374 252.728 173.809C252.529 174.241 252.227 174.582 251.82 174.833C251.413 175.082 250.933 175.206 250.379 175.206ZM257.799 175.206C257.157 175.206 256.591 175.032 256.1 174.685C255.609 174.335 255.207 173.828 254.894 173.165C254.581 172.499 254.371 171.694 254.265 170.751C254.16 169.814 254.19 169.013 254.354 168.35C254.52 167.684 254.81 167.176 255.222 166.825C255.637 166.473 256.163 166.296 256.799 166.296C257.436 166.296 258 166.473 258.491 166.825C258.985 167.176 259.388 167.684 259.702 168.35C260.018 169.013 260.228 169.814 260.333 170.751C260.439 171.694 260.41 172.499 260.246 173.165C260.082 173.828 259.794 174.335 259.381 174.685C258.969 175.032 258.441 175.206 257.799 175.206ZM257.695 174.274C258.331 174.274 258.791 173.97 259.075 173.36C259.359 172.75 259.437 171.88 259.311 170.751C259.226 170 259.074 169.361 258.852 168.833C258.634 168.305 258.359 167.902 258.027 167.626C257.697 167.349 257.323 167.211 256.902 167.211C256.271 167.211 255.813 167.52 255.527 168.138C255.241 168.754 255.162 169.625 255.288 170.751C255.372 171.502 255.523 172.14 255.741 172.665C255.959 173.19 256.233 173.59 256.562 173.864C256.894 174.138 257.271 174.274 257.695 174.274ZM266.706 173.461L266.654 173.004C266.619 172.688 266.652 172.398 266.753 172.136C266.857 171.87 267.026 171.659 267.261 171.501C267.499 171.34 267.799 171.259 268.163 171.259C268.532 171.259 268.851 171.34 269.119 171.501C269.387 171.659 269.6 171.87 269.757 172.136C269.914 172.398 270.011 172.688 270.046 173.004L270.098 173.461C270.133 173.778 270.1 174.068 270 174.334C269.901 174.596 269.735 174.808 269.5 174.969C269.267 175.127 268.97 175.206 268.606 175.206C268.237 175.206 267.917 175.127 267.646 174.969C267.375 174.808 267.16 174.596 267 174.334C266.839 174.068 266.741 173.778 266.706 173.461ZM267.524 173.004L267.575 173.461C267.604 173.724 267.693 173.96 267.842 174.169C267.99 174.375 268.217 174.478 268.524 174.478C268.822 174.478 269.021 174.375 269.12 174.169C269.222 173.96 269.258 173.724 269.228 173.461L269.177 173.004C269.148 172.741 269.062 172.507 268.919 172.301C268.776 172.092 268.552 171.988 268.245 171.988C267.947 171.988 267.744 172.092 267.637 172.301C267.532 172.507 267.494 172.741 267.524 173.004ZM261.802 168.498L261.751 168.041C261.715 167.725 261.748 167.435 261.849 167.173C261.953 166.907 262.123 166.696 262.358 166.537C262.595 166.377 262.896 166.296 263.26 166.296C263.629 166.296 263.948 166.377 264.216 166.537C264.483 166.696 264.696 166.907 264.854 167.173C265.011 167.435 265.107 167.725 265.143 168.041L265.194 168.498C265.23 168.814 265.197 169.105 265.096 169.371C264.998 169.633 264.831 169.845 264.596 170.006C264.364 170.164 264.066 170.243 263.702 170.243C263.333 170.243 263.013 170.164 262.743 170.006C262.472 169.845 262.256 169.633 262.096 169.371C261.936 169.105 261.838 168.814 261.802 168.498ZM262.62 168.041L262.671 168.498C262.701 168.761 262.79 168.996 262.938 169.205C263.086 169.411 263.314 169.515 263.621 169.515C263.919 169.515 264.118 169.411 264.217 169.205C264.318 168.996 264.354 168.761 264.325 168.498L264.274 168.041C264.244 167.778 264.158 167.544 264.016 167.338C263.873 167.129 263.648 167.024 263.341 167.024C263.043 167.024 262.84 167.129 262.733 167.338C262.628 167.544 262.591 167.778 262.62 168.041ZM262.865 175.088L267.892 166.415H268.864L263.837 175.088H262.865Z" fill="white"/>
<path d="M279.6 186.081H239.176C238.393 186.081 237.676 185.494 237.611 184.712C237.481 183.799 238.263 182.951 239.176 182.951H279.6C280.382 182.951 281.099 183.538 281.165 184.32C281.23 185.233 280.513 186.081 279.6 186.081Z" fill="#4E4ECE"/>
<path d="M214.204 129.291V110.122C214.204 108.818 215.312 107.71 216.616 107.71C217.92 107.71 219.029 108.818 219.029 110.122V111.1" stroke="#130F40" stroke-miterlimit="10" stroke-linecap="round" stroke-linejoin="round"/>
<path d="M220.789 118.207L217.333 122.054L214.204 118.598L211.009 122.054L207.553 118.207L214.204 173.431L220.789 118.207Z" fill="white"/>
<path d="M214.204 119.642V150.416" stroke="#B3B3FF" stroke-width="0.75" stroke-miterlimit="10" stroke-linecap="round" stroke-linejoin="round"/>
<path d="M210.944 122.901L214.204 151.785L217.333 122.901" stroke="#B3B3FF" stroke-width="0.75" stroke-miterlimit="10" stroke-linecap="round" stroke-linejoin="round"/>
<path d="M220.724 195.795L223.071 202.511H205.272L207.619 195.795C204.228 194.948 201.816 191.688 202.207 187.971L207.358 140.18H220.985L226.136 187.971C226.592 191.688 224.18 194.948 220.724 195.795Z" fill="#171659"/>
<path d="M207.619 195.795H220.724" stroke="#130F40" stroke-width="0.75" stroke-miterlimit="10" stroke-linecap="round" stroke-linejoin="round"/>
<path d="M46.2488 83.1953C52.2983 83.1953 57.2024 78.2912 57.2024 72.2417C57.2024 66.1922 52.2983 61.2881 46.2488 61.2881C40.1993 61.2881 35.2952 66.1922 35.2952 72.2417C35.2952 78.2912 40.1993 83.1953 46.2488 83.1953Z" fill="#F4CC4D"/>
<path d="M144.505 90.498C150.555 90.498 155.459 85.5939 155.459 79.5444C155.459 73.4949 150.555 68.5908 144.505 68.5908C138.456 68.5908 133.552 73.4949 133.552 79.5444C133.552 85.5939 138.456 90.498 144.505 90.498Z" fill="white"/>
<path d="M58.6368 65.526C61.2654 65.526 63.3964 63.3951 63.3964 60.7664C63.3964 58.1378 61.2654 56.0068 58.6368 56.0068C56.0081 56.0068 53.8772 58.1378 53.8772 60.7664C53.8772 63.3951 56.0081 65.526 58.6368 65.526Z" fill="#F4CC4D"/>
<path d="M132.704 75.3708C135.333 75.3708 137.464 73.2398 137.464 70.6112C137.464 67.9825 135.333 65.8516 132.704 65.8516C130.075 65.8516 127.944 67.9825 127.944 70.6112C127.944 73.2398 130.075 75.3708 132.704 75.3708Z" fill="white"/>
</svg>
