<svg width="332" height="346" viewBox="0 0 332 346" fill="none" xmlns="http://www.w3.org/2000/svg">
<circle cx="162" cy="145" r="145" fill="#EEEDFD"/>
<path d="M200.156 278.684H194.386V278.85H200.156V278.684Z" fill="#EBEBEB"/>
<path d="M149.493 276.354H141.067V276.52H149.493V276.354Z" fill="#EBEBEB"/>
<path d="M135.157 276.354H110.702V276.52H135.157V276.354Z" fill="#EBEBEB"/>
<path d="M126.678 179.675L288.056 179.675V61.7949L126.678 61.7949L126.678 179.675Z" fill="#E6E6E6"/>
<path d="M119.547 179.675L286.403 179.675V61.7949L119.547 61.7949L119.547 179.675Z" fill="#F0F0F0"/>
<path d="M276.41 169.688V71.7812L129.526 71.7813V169.688H276.41Z" fill="#FAFAFA"/>
<path d="M240.707 169.681L207.268 71.7812H175.336L208.775 169.681H240.707Z" fill="white"/>
<path d="M201.916 169.681L168.477 71.7812H156.033L189.472 169.681H201.916Z" fill="white"/>
<path d="M130.801 169.688V71.7812H129.533V169.688H130.801Z" fill="#E6E6E6"/>
<path d="M42.8744 147.61H99.8589L99.8589 66.8215H42.8744L42.8744 147.61Z" fill="#E0E0E0"/>
<path d="M38.8441 147.61H97.5815L97.5815 66.8215L38.8441 66.8215L38.8441 147.61Z" fill="#F5F5F5"/>
<path d="M91.7847 141.236V73.1826H44.6407L44.6407 141.236H91.7847Z" fill="white"/>
<path d="M65.0254 204.169C69.2551 193.731 79.3147 189.847 82.7941 183.253C87.3425 174.621 87.3159 161.667 83.4581 156.999C80.085 152.935 68.9298 180.398 67.6748 183.466C64.2318 191.745 62.0776 200.503 61.2871 209.435C61.3801 202.988 61.4664 197.065 61.5394 192.496C61.7785 177.596 62.0706 172.802 62.2034 171.328C62.6682 170.604 63.2194 169.768 63.5314 169.336C66.2339 165.531 72.2232 160.996 75.2178 155.465C79.587 147.384 78.8831 137.716 75.8154 134.117C72.6083 130.353 66.9444 139.25 63.9365 148.061C60.9286 156.873 62.2101 165.325 61.3668 172.629C61.1942 174.064 61.0082 179.515 60.8422 187.085C59.9259 178.944 58.1066 173.493 54.7401 168.406C50.5967 162.158 47.0178 154.549 43.6048 155.531C40.1918 156.514 42.0245 166.587 44.727 173.652C47.1439 179.947 58.9963 186.228 60.7426 191.288C60.5368 201.54 60.3509 214.528 60.2247 226.633C59.2885 220.384 59.9326 219.86 56.0946 210.292C53.8171 204.608 44.4879 197.596 43.3591 201.5C42.2303 205.405 43.9368 212.788 47.4626 217.967C50.3112 222.137 56.6258 222.131 58.0866 224.72C58.4253 225.325 59.5541 227.642 60.1982 228.97C60.0454 243.737 59.979 256.778 60.0521 261.22L60.663 261.267C60.663 260.118 60.7094 252.635 60.829 242.675C62.3628 237.363 72.688 234.302 75.8752 228.797C79.1952 223.04 81.6122 216.321 80.1779 211.825C78.9827 208.074 69.5539 213.153 65.7625 219.388C63.2194 223.532 61.6656 227.947 60.9418 233.883C61.0282 227.111 61.1278 219.833 61.2207 212.967C61.9976 211.241 63.7439 207.297 65.0254 204.169Z" fill="#E6E6E6"/>
<path d="M71.0878 267.914H49.3882C48.8148 267.913 48.2591 267.715 47.8152 267.352C47.3712 266.989 47.0661 266.484 46.9514 265.922L45.4109 258.353H75.0718L73.5313 265.942C73.4101 266.5 73.1017 267 72.6572 267.359C72.2127 267.718 71.6589 267.914 71.0878 267.914Z" fill="#F0F0F0"/>
<path d="M75.6959 261.267H44.7867C44.4287 261.266 44.0835 261.134 43.8167 260.895C43.5498 260.656 43.3799 260.328 43.3392 259.972L42.6752 254.361C42.6529 254.158 42.6736 253.952 42.7361 253.756C42.7986 253.561 42.9014 253.382 43.038 253.229C43.1745 253.076 43.3416 252.954 43.5285 252.87C43.7154 252.786 43.9178 252.742 44.1227 252.741H76.2869C76.4921 252.741 76.6951 252.784 76.8825 252.867C77.0699 252.951 77.2374 253.073 77.3742 253.227C77.5109 253.38 77.6137 253.56 77.6758 253.755C77.7379 253.951 77.7579 254.158 77.7344 254.361L77.0704 259.972C77.0316 260.316 76.8722 260.634 76.6205 260.872C76.3688 261.109 76.0412 261.249 75.6959 261.267Z" fill="#F0F0F0"/>
<path d="M269.338 263.073H275.972V191.7H269.338V263.073Z" fill="#F0F0F0"/>
<path d="M134.168 267.827H273.428V263.073H134.168V267.827Z" fill="#F0F0F0"/>
<path d="M269.345 191.7H131.625V263.074H269.345V191.7Z" fill="#F5F5F5"/>
<path d="M270.905 191.7H277.758V187.198H270.905V191.7Z" fill="#E0E0E0"/>
<path d="M270.905 187.198H129.839V191.7H270.905V187.198Z" fill="#EBEBEB"/>
<path d="M259.458 222.497H141.505C140.096 222.497 138.745 221.937 137.749 220.941C136.753 219.945 136.193 218.593 136.193 217.185V201.913C136.193 200.504 136.753 199.153 137.749 198.156C138.745 197.16 140.096 196.601 141.505 196.601H259.458C260.867 196.601 262.218 197.16 263.214 198.156C264.21 199.153 264.77 200.504 264.77 201.913V217.185C264.77 218.593 264.21 219.945 263.214 220.941C262.218 221.937 260.867 222.497 259.458 222.497ZM141.505 197.929C140.448 197.929 139.435 198.348 138.688 199.095C137.941 199.843 137.521 200.856 137.521 201.913V217.185C137.521 218.241 137.941 219.255 138.688 220.002C139.435 220.749 140.448 221.169 141.505 221.169H259.458C260.515 221.169 261.528 220.749 262.275 220.002C263.022 219.255 263.442 218.241 263.442 217.185V201.913C263.442 200.856 263.022 199.843 262.275 199.095C261.528 198.348 260.515 197.929 259.458 197.929H141.505Z" fill="white"/>
<path d="M259.458 254.495H141.505C140.096 254.495 138.745 253.935 137.749 252.939C136.753 251.943 136.193 250.591 136.193 249.183V233.911C136.193 232.502 136.753 231.151 137.749 230.154C138.745 229.158 140.096 228.599 141.505 228.599H259.458C260.867 228.599 262.218 229.158 263.214 230.154C264.21 231.151 264.77 232.502 264.77 233.911V249.183C264.77 250.591 264.21 251.943 263.214 252.939C262.218 253.935 260.867 254.495 259.458 254.495ZM141.505 229.874C140.448 229.874 139.435 230.293 138.688 231.04C137.941 231.788 137.521 232.801 137.521 233.858V249.13C137.521 250.186 137.941 251.199 138.688 251.947C139.435 252.694 140.448 253.114 141.505 253.114H259.458C260.515 253.114 261.528 252.694 262.275 251.947C263.022 251.199 263.442 250.186 263.442 249.13V233.858C263.442 232.801 263.022 231.788 262.275 231.04C261.528 230.293 260.515 229.874 259.458 229.874H141.505Z" fill="white"/>
<path d="M232.652 211.872H168.311C167.854 211.872 167.416 211.691 167.092 211.369C166.769 211.046 166.586 210.609 166.584 210.152V208.891C166.586 208.434 166.769 207.997 167.092 207.674C167.416 207.352 167.854 207.171 168.311 207.171H232.652C233.109 207.171 233.547 207.352 233.871 207.674C234.194 207.997 234.377 208.434 234.379 208.891V210.152C234.377 210.609 234.194 211.046 233.871 211.369C233.547 211.691 233.109 211.872 232.652 211.872ZM168.311 208.552C168.207 208.554 168.107 208.595 168.033 208.668C167.959 208.741 167.916 208.84 167.912 208.944V210.205C167.916 210.309 167.959 210.408 168.033 210.481C168.107 210.554 168.207 210.595 168.311 210.597H232.652C232.757 210.597 232.857 210.556 232.932 210.483C233.006 210.41 233.049 210.31 233.051 210.205V208.944C233.049 208.839 233.006 208.74 232.932 208.666C232.857 208.593 232.757 208.552 232.652 208.552H168.311Z" fill="white"/>
<path d="M232.652 243.87H168.311C167.854 243.87 167.416 243.689 167.092 243.367C166.769 243.044 166.586 242.607 166.584 242.15V240.889C166.586 240.432 166.769 239.995 167.092 239.672C167.416 239.35 167.854 239.169 168.311 239.169H232.652C233.109 239.169 233.547 239.35 233.871 239.672C234.194 239.995 234.377 240.432 234.379 240.889V242.15C234.377 242.607 234.194 243.044 233.871 243.367C233.547 243.689 233.109 243.87 232.652 243.87ZM168.311 240.497C168.207 240.499 168.107 240.54 168.033 240.613C167.959 240.686 167.916 240.785 167.912 240.889V242.15C167.916 242.254 167.959 242.353 168.033 242.426C168.107 242.499 168.207 242.54 168.311 242.542H232.652C232.757 242.542 232.857 242.501 232.932 242.428C233.006 242.354 233.049 242.255 233.051 242.15V240.889C233.049 240.784 233.006 240.685 232.932 240.611C232.857 240.538 232.757 240.497 232.652 240.497H168.311Z" fill="white"/>
<path d="M162.68 297.9C233.783 297.9 291.423 294.535 291.423 290.384C291.423 286.232 233.783 282.867 162.68 282.867C91.5772 282.867 33.937 286.232 33.937 290.384C33.937 294.535 91.5772 297.9 162.68 297.9Z" fill="#EEEDFD"/>
<path d="M248.861 125.387L248.608 129.297L249.271 129.34L249.523 125.43L248.861 125.387Z" fill="#4E4ECE"/>
<path d="M249.868 109.509L249.04 122.357L249.702 122.4L250.531 109.552L249.868 109.509Z" fill="#4E4ECE"/>
<path d="M241.988 90.851H163.935C161.931 90.8861 160.012 91.6668 158.552 93.0406C157.092 94.4144 156.197 96.2827 156.04 98.2811L145.954 253.989C145.88 254.944 146.006 255.903 146.323 256.806C146.639 257.71 147.141 258.537 147.794 259.236C148.448 259.936 149.24 260.492 150.12 260.868C151 261.245 151.949 261.435 152.906 261.426H230.946C232.954 261.393 234.877 260.612 236.34 259.237C237.804 257.862 238.702 255.991 238.861 253.989L248.94 98.2811C249.014 97.327 248.888 96.368 248.571 95.465C248.255 94.562 247.753 93.7348 247.099 93.036C246.446 92.3372 245.654 91.7821 244.774 91.4059C243.894 91.0298 242.945 90.8408 241.988 90.851Z" fill="#4E4ECE"/>
<path opacity="0.7" d="M239.511 90.851H163.935C161.931 90.8861 160.012 91.6668 158.552 93.0406C157.092 94.4144 156.197 96.2827 156.04 98.2811L145.954 253.989C145.88 254.944 146.006 255.903 146.323 256.806C146.639 257.71 147.141 258.537 147.794 259.236C148.448 259.936 149.24 260.492 150.12 260.868C151 261.245 151.949 261.435 152.906 261.426H228.469C230.477 261.393 232.4 260.612 233.864 259.237C235.327 257.862 236.226 255.991 236.384 253.989L246.464 98.2811C246.537 97.327 246.412 96.368 246.095 95.465C245.778 94.562 245.277 93.7348 244.623 93.036C243.969 92.3372 243.177 91.7821 242.297 91.4059C241.417 91.0298 240.468 90.8408 239.511 90.851Z" fill="white"/>
<path d="M233.137 249.919H150.004C149.693 249.92 149.385 249.857 149.1 249.733C148.814 249.61 148.557 249.43 148.344 249.203C148.132 248.977 147.967 248.709 147.862 248.416C147.757 248.124 147.713 247.812 147.733 247.502L156.857 106.601C156.894 106.026 157.148 105.486 157.569 105.092C157.989 104.697 158.544 104.477 159.121 104.477H242.26C242.571 104.477 242.879 104.541 243.165 104.665C243.45 104.789 243.707 104.97 243.92 105.197C244.133 105.424 244.297 105.692 244.402 105.985C244.507 106.278 244.551 106.59 244.531 106.9L235.408 247.794C235.371 248.371 235.115 248.912 234.693 249.306C234.271 249.701 233.715 249.92 233.137 249.919Z" fill="white"/>
<path d="M214.665 99.8685H184.446C184.29 99.8698 184.136 99.8389 183.993 99.7776C183.851 99.7163 183.722 99.6259 183.616 99.5123C183.51 99.3987 183.428 99.2643 183.377 99.1175C183.325 98.9708 183.305 98.815 183.317 98.66C183.348 98.3379 183.495 98.0381 183.731 97.8168C183.967 97.5956 184.275 97.468 184.599 97.4581H214.817C214.972 97.4558 215.126 97.4859 215.269 97.5465C215.412 97.607 215.541 97.6967 215.647 97.8098C215.753 97.9229 215.835 98.057 215.886 98.2034C215.938 98.3497 215.958 98.5053 215.946 98.66C215.917 98.9832 215.771 99.2846 215.534 99.5073C215.298 99.7299 214.989 99.8584 214.665 99.8685Z" fill="white"/>
<path d="M191.079 255.835C191.03 256.631 190.682 257.379 190.104 257.928C189.527 258.477 188.762 258.788 187.965 258.796C187.582 258.8 187.203 258.724 186.85 258.575C186.498 258.425 186.18 258.205 185.916 257.927C185.653 257.649 185.449 257.32 185.319 256.96C185.188 256.6 185.133 256.217 185.156 255.835C185.206 255.04 185.555 254.294 186.133 253.746C186.711 253.198 187.474 252.889 188.27 252.88C188.653 252.876 189.032 252.95 189.385 253.099C189.737 253.248 190.055 253.468 190.319 253.745C190.582 254.023 190.786 254.351 190.917 254.711C191.048 255.07 191.103 255.453 191.079 255.835Z" fill="white"/>
<path opacity="0.2" d="M224.08 143.479H153.092L148.576 213.133H224.08C226.05 213.13 227.939 212.346 229.332 210.953C230.726 209.561 231.511 207.673 231.517 205.703V150.936C231.518 148.961 230.736 147.067 229.342 145.669C227.947 144.27 226.055 143.483 224.08 143.479Z" fill="#407BFF"/>
<path d="M217.467 137.312H130.469C126.362 137.312 123.032 140.641 123.032 144.748V199.535C123.032 203.642 126.362 206.972 130.469 206.972H217.467C221.574 206.972 224.903 203.642 224.903 199.535V144.748C224.903 140.641 221.574 137.312 217.467 137.312Z" fill="#4E4ECE"/>
<path d="M120.655 136.508C120.481 136.507 120.314 136.438 120.191 136.315L118.995 135.126C118.87 135.001 118.8 134.832 118.8 134.655C118.8 134.478 118.87 134.309 118.995 134.184C119.12 134.059 119.29 133.988 119.467 133.988C119.644 133.988 119.813 134.059 119.938 134.184L121.127 135.379C121.25 135.503 121.32 135.671 121.32 135.847C121.32 136.022 121.25 136.191 121.127 136.315C121.065 136.377 120.991 136.425 120.91 136.458C120.829 136.491 120.743 136.508 120.655 136.508Z" fill="#4E4ECE"/>
<path d="M118.856 140.678H117.176C117 140.678 116.831 140.608 116.706 140.483C116.582 140.359 116.512 140.19 116.512 140.014C116.512 139.838 116.582 139.669 116.706 139.544C116.831 139.42 117 139.35 117.176 139.35H118.856C119.032 139.35 119.201 139.42 119.325 139.544C119.45 139.669 119.52 139.838 119.52 140.014C119.52 140.19 119.45 140.359 119.325 140.483C119.201 140.608 119.032 140.678 118.856 140.678Z" fill="#4E4ECE"/>
<path d="M124.885 134.715C124.717 134.716 124.555 134.652 124.431 134.537C124.308 134.423 124.233 134.266 124.221 134.098L124.102 132.418C124.095 132.331 124.106 132.243 124.134 132.16C124.162 132.077 124.205 132 124.263 131.934C124.32 131.868 124.39 131.814 124.468 131.775C124.547 131.736 124.632 131.713 124.719 131.707C124.894 131.696 125.067 131.755 125.198 131.871C125.33 131.987 125.411 132.15 125.423 132.325L125.549 134.005C125.555 134.092 125.544 134.18 125.517 134.263C125.489 134.346 125.445 134.422 125.388 134.488C125.331 134.554 125.261 134.608 125.182 134.647C125.104 134.686 125.019 134.709 124.932 134.715H124.885Z" fill="#4E4ECE"/>
<path d="M181.398 199.807L208.111 226.513V199.807H181.398Z" fill="#4E4ECE"/>
<path d="M188.722 188.107L187.394 182.47C187.059 180.988 187.059 179.45 187.394 177.968L189.24 169.94C189.995 166.517 189.586 162.939 188.078 159.775C186.57 156.61 184.048 154.04 180.913 152.47C180.972 152.323 181.023 152.172 181.066 152.019C181.175 151.532 181.187 151.028 181.102 150.537C181.016 150.045 180.834 149.575 180.567 149.154C180.3 148.732 179.952 148.367 179.544 148.08C179.135 147.793 178.675 147.589 178.188 147.48C177.701 147.371 177.197 147.359 176.705 147.445C176.214 147.531 175.744 147.712 175.322 147.98C174.901 148.247 174.536 148.595 174.249 149.003C173.962 149.411 173.758 149.872 173.649 150.359C173.616 150.514 173.596 150.672 173.59 150.83C170.085 150.913 166.708 152.161 163.994 154.379C161.279 156.597 159.382 159.657 158.603 163.074L156.804 171.109C156.473 172.588 155.815 173.974 154.878 175.166L151.299 179.714C150.949 180.16 150.718 180.688 150.626 181.248C150.535 181.807 150.587 182.381 150.777 182.915C150.967 183.45 151.29 183.927 151.714 184.303C152.139 184.679 152.651 184.942 153.205 185.066L184.745 192.131C185.296 192.25 185.869 192.228 186.409 192.068C186.95 191.907 187.441 191.612 187.838 191.211C188.234 190.81 188.523 190.315 188.678 189.772C188.832 189.23 188.848 188.657 188.722 188.107Z" fill="white"/>
<path d="M164.904 189.847C164.664 189.794 164.415 189.801 164.179 189.867C163.942 189.934 163.726 190.057 163.548 190.227C163.371 190.397 163.238 190.609 163.162 190.842C163.086 191.076 163.069 191.324 163.112 191.566C163.293 192.633 163.787 193.622 164.532 194.407C165.277 195.192 166.239 195.737 167.295 195.974C168.351 196.21 169.454 196.127 170.462 195.735C171.471 195.342 172.34 194.659 172.959 193.771C173.1 193.571 173.19 193.339 173.221 193.096C173.251 192.853 173.222 192.606 173.134 192.377C173.047 192.148 172.905 191.944 172.72 191.783C172.536 191.622 172.314 191.509 172.076 191.453L164.904 189.847Z" fill="white"/>
<path d="M140.681 178.672C140.517 178.673 140.355 178.633 140.21 178.556C140.065 178.478 139.942 178.365 139.851 178.227C136.715 173.529 135.574 167.777 136.679 162.237C137.783 156.697 141.043 151.822 145.741 148.686C145.961 148.54 146.23 148.487 146.489 148.539C146.748 148.592 146.976 148.745 147.122 148.965C147.268 149.185 147.321 149.454 147.269 149.713C147.217 149.972 147.064 150.2 146.843 150.346C142.59 153.195 139.642 157.615 138.646 162.636C137.65 167.657 138.688 172.869 141.531 177.125C141.678 177.344 141.732 177.613 141.681 177.872C141.63 178.131 141.478 178.359 141.259 178.506C141.088 178.619 140.886 178.677 140.681 178.672Z" fill="white"/>
<path d="M144.898 175.843C144.735 175.842 144.574 175.8 144.431 175.723C144.287 175.645 144.165 175.534 144.075 175.398C141.688 171.818 140.819 167.438 141.659 163.219C142.5 158.999 144.98 155.286 148.557 152.895C148.666 152.822 148.788 152.771 148.916 152.746C149.045 152.72 149.177 152.72 149.306 152.746C149.434 152.771 149.557 152.822 149.666 152.895C149.775 152.968 149.868 153.061 149.941 153.17C150.014 153.279 150.064 153.402 150.09 153.53C150.116 153.659 150.116 153.791 150.09 153.92C150.064 154.048 150.014 154.17 149.941 154.279C149.868 154.388 149.774 154.482 149.665 154.555C146.527 156.65 144.348 159.905 143.61 163.606C142.871 167.307 143.633 171.15 145.728 174.289C145.875 174.508 145.929 174.777 145.878 175.036C145.827 175.295 145.675 175.523 145.456 175.67C145.291 175.78 145.097 175.84 144.898 175.843Z" fill="white"/>
<path d="M149.121 173.021C148.958 173.022 148.798 172.983 148.654 172.906C148.51 172.83 148.388 172.719 148.298 172.583C147.484 171.365 146.919 169.998 146.634 168.562C146.349 167.125 146.351 165.646 146.638 164.209C146.925 162.773 147.493 161.407 148.309 160.191C149.125 158.974 150.172 157.93 151.392 157.119C151.611 156.982 151.875 156.937 152.127 156.991C152.379 157.045 152.601 157.196 152.745 157.41C152.888 157.624 152.943 157.886 152.898 158.14C152.852 158.394 152.71 158.621 152.501 158.772C151.5 159.44 150.641 160.298 149.973 161.298C149.304 162.298 148.839 163.42 148.604 164.599C148.369 165.779 148.369 166.993 148.604 168.173C148.838 169.352 149.303 170.474 149.971 171.474C150.116 171.694 150.169 171.962 150.118 172.221C150.067 172.479 149.916 172.707 149.699 172.855C149.527 172.968 149.326 173.026 149.121 173.021Z" fill="white"/>
<path d="M198.104 192.675C197.881 192.675 197.665 192.6 197.49 192.462C197.315 192.324 197.192 192.132 197.139 191.915C197.086 191.699 197.107 191.471 197.199 191.268C197.291 191.065 197.449 190.899 197.646 190.796C202.195 188.446 205.625 184.385 207.181 179.507C208.738 174.628 208.294 169.332 205.946 164.781C205.875 164.664 205.828 164.534 205.809 164.398C205.791 164.262 205.8 164.124 205.837 163.993C205.874 163.861 205.938 163.738 206.024 163.632C206.111 163.526 206.218 163.439 206.34 163.376C206.462 163.313 206.595 163.277 206.732 163.268C206.868 163.259 207.005 163.278 207.134 163.325C207.263 163.371 207.381 163.444 207.48 163.538C207.58 163.632 207.659 163.745 207.712 163.871C208.995 166.358 209.774 169.073 210.007 171.861C210.24 174.649 209.921 177.456 209.069 180.121C208.217 182.786 206.848 185.257 205.041 187.393C203.233 189.529 201.023 191.288 198.536 192.569C198.401 192.635 198.254 192.671 198.104 192.675Z" fill="white"/>
<path d="M195.774 188.167C195.551 188.166 195.335 188.091 195.16 187.953C194.985 187.815 194.861 187.623 194.808 187.407C194.756 187.19 194.777 186.962 194.869 186.76C194.961 186.557 195.118 186.391 195.315 186.288C196.977 185.431 198.453 184.255 199.66 182.828C200.867 181.4 201.781 179.748 202.349 177.967C202.917 176.186 203.128 174.311 202.97 172.448C202.813 170.585 202.29 168.772 201.431 167.111C201.309 166.876 201.286 166.602 201.367 166.35C201.447 166.098 201.624 165.888 201.859 165.767C202.094 165.645 202.368 165.622 202.62 165.702C202.872 165.783 203.082 165.96 203.204 166.195C204.182 168.088 204.778 170.155 204.958 172.278C205.137 174.402 204.896 176.539 204.248 178.569C203.601 180.6 202.56 182.482 201.184 184.11C199.809 185.737 198.126 187.077 196.232 188.054C196.091 188.129 195.933 188.168 195.774 188.167Z" fill="white"/>
<path d="M193.443 183.659C193.221 183.655 193.007 183.578 192.833 183.439C192.66 183.301 192.538 183.108 192.485 182.893C192.433 182.677 192.453 182.45 192.544 182.247C192.634 182.045 192.789 181.878 192.985 181.773C194.054 181.223 195.004 180.467 195.781 179.549C196.557 178.632 197.145 177.57 197.511 176.424C197.877 175.279 198.013 174.073 197.912 172.875C197.811 171.677 197.475 170.51 196.922 169.442C196.801 169.207 196.778 168.933 196.858 168.681C196.938 168.429 197.116 168.219 197.351 168.098C197.586 167.976 197.86 167.953 198.112 168.033C198.364 168.114 198.574 168.291 198.695 168.526C200.047 171.156 200.299 174.214 199.398 177.03C198.497 179.846 196.515 182.189 193.888 183.546C193.75 183.617 193.598 183.655 193.443 183.659Z" fill="white"/>
<path d="M135.031 97.5646H129.958C129.826 97.5679 129.7 97.6178 129.602 97.7053C129.503 97.7928 129.439 97.9123 129.42 98.0427L128.358 108.162C128.35 108.223 128.356 108.285 128.374 108.344C128.392 108.402 128.423 108.456 128.464 108.502C128.505 108.548 128.555 108.585 128.611 108.61C128.667 108.635 128.728 108.647 128.789 108.647H133.862C133.995 108.643 134.122 108.592 134.221 108.504C134.319 108.415 134.383 108.294 134.4 108.162L135.463 98.0427C135.47 97.982 135.465 97.9204 135.446 97.8621C135.428 97.8037 135.397 97.75 135.356 97.7046C135.315 97.6593 135.265 97.6233 135.209 97.5991C135.153 97.5749 135.092 97.5631 135.031 97.5646Z" fill="#4E4ECE"/>
<path opacity="0.4" d="M134.573 97.5639H129.958C129.826 97.5673 129.7 97.6171 129.602 97.7046C129.503 97.7921 129.439 97.9116 129.42 98.042L128.358 108.161C128.35 108.222 128.356 108.284 128.374 108.343C128.392 108.402 128.423 108.456 128.464 108.501C128.505 108.547 128.555 108.584 128.611 108.609C128.667 108.634 128.728 108.647 128.789 108.646H133.437C133.569 108.642 133.695 108.591 133.793 108.502C133.89 108.413 133.953 108.292 133.969 108.161L135.031 98.042C135.04 97.9787 135.035 97.9142 135.016 97.8532C134.997 97.7923 134.964 97.7366 134.919 97.6904C134.875 97.6442 134.821 97.6088 134.761 97.5869C134.701 97.565 134.636 97.5571 134.573 97.5639Z" fill="white"/>
<path d="M109.607 284.68C110.271 284.68 110.934 284.58 111.167 284.275C111.223 284.193 111.254 284.096 111.254 283.996C111.254 283.896 111.223 283.799 111.167 283.717C111.07 283.568 110.921 283.462 110.749 283.418C109.846 283.173 108.013 284.248 107.933 284.295C107.913 284.308 107.896 284.327 107.887 284.349C107.877 284.372 107.875 284.397 107.88 284.421C107.885 284.447 107.898 284.472 107.917 284.49C107.936 284.509 107.96 284.522 107.986 284.527C108.521 284.624 109.063 284.675 109.607 284.68ZM110.417 283.637C110.498 283.627 110.581 283.627 110.662 283.637C110.768 283.663 110.86 283.727 110.921 283.817C111.014 283.976 110.988 284.056 110.921 284.096C110.689 284.447 109.328 284.454 108.325 284.315C108.969 283.949 109.681 283.719 110.417 283.637Z" fill="#4E4ECE"/>
<path d="M107.973 284.527H108.026C108.69 284.235 109.899 283.073 109.772 282.462C109.772 282.323 109.633 282.143 109.281 282.11C109.157 282.096 109.03 282.108 108.911 282.145C108.791 282.181 108.68 282.242 108.584 282.323C107.92 282.887 107.847 284.315 107.84 284.394C107.839 284.418 107.844 284.441 107.855 284.462C107.865 284.482 107.881 284.5 107.9 284.514C107.923 284.525 107.948 284.53 107.973 284.527ZM109.195 282.349H109.268C109.5 282.349 109.52 282.462 109.52 282.489C109.6 282.854 108.763 283.77 108.119 284.168C108.16 283.559 108.392 282.978 108.783 282.508C108.898 282.41 109.043 282.354 109.195 282.349Z" fill="#4E4ECE"/>
<path d="M107.428 271.95H102.05V284.4H107.428V271.95Z" fill="#FF8B7B"/>
<path d="M63.0469 278.465L68.4186 279.049L71.9179 266.964L66.5462 266.38L63.0469 278.465Z" fill="#FF8B7B"/>
<path d="M70.9152 280.264C71.5792 280.437 72.2432 280.51 72.542 280.264C72.615 280.196 72.6646 280.107 72.6837 280.009C72.7027 279.911 72.6903 279.81 72.6482 279.72C72.6209 279.637 72.5775 279.56 72.5205 279.494C72.4636 279.428 72.3941 279.374 72.3162 279.334C71.4862 278.876 69.4278 279.454 69.3415 279.474C69.3162 279.481 69.2936 279.495 69.277 279.515C69.2603 279.536 69.2504 279.561 69.2485 279.587C69.2485 279.613 69.256 279.639 69.2701 279.661C69.2842 279.684 69.3043 279.702 69.3282 279.713C69.8406 279.941 70.3715 280.126 70.9152 280.264ZM71.9643 279.467C72.0449 279.487 72.1229 279.516 72.1967 279.554C72.2951 279.6 72.3713 279.684 72.4092 279.786C72.4623 279.965 72.4092 280.032 72.4092 280.071C72.0905 280.344 70.7558 280.018 69.8063 279.633C70.5084 279.44 71.2414 279.386 71.9643 279.474V279.467Z" fill="#4E4ECE"/>
<path d="M69.3548 279.726H69.4079C70.0719 279.6 71.5991 278.79 71.6257 278.179C71.6257 278.033 71.5725 277.834 71.2339 277.714C71.1146 277.671 70.9879 277.653 70.8614 277.66C70.7348 277.666 70.6108 277.699 70.4969 277.754C69.7133 278.133 69.2751 279.5 69.2552 279.553C69.2441 279.573 69.2383 279.594 69.2383 279.617C69.2383 279.639 69.2441 279.66 69.2552 279.68C69.2665 279.695 69.2815 279.708 69.2989 279.716C69.3164 279.724 69.3356 279.728 69.3548 279.726ZM71.0812 277.94H71.1609C71.38 278.02 71.3733 278.113 71.3733 278.139C71.3733 278.511 70.3109 279.182 69.5805 279.401C69.7644 278.826 70.1274 278.326 70.6164 277.973C70.7622 277.906 70.9273 277.895 71.0812 277.94Z" fill="#4E4ECE"/>
<path d="M68.704 278.55L62.8276 276.864C62.7267 276.833 62.6183 276.839 62.5212 276.881C62.4242 276.922 62.3447 276.996 62.2964 277.09L60.1318 281.386C60.0812 281.494 60.0552 281.613 60.0557 281.733C60.0561 281.853 60.0829 281.971 60.1343 282.08C60.1856 282.188 60.2602 282.284 60.3527 282.36C60.4453 282.436 60.5534 282.491 60.6696 282.521C62.728 283.072 63.7572 283.245 66.3402 283.982C67.9271 284.44 71.1608 285.542 73.3587 286.173C75.5565 286.804 76.3666 284.739 75.5167 284.287C71.7053 282.262 70.4835 280.629 69.4743 279.115C69.2932 278.841 69.02 278.64 68.704 278.55Z" fill="#263238"/>
<path d="M107.369 283.776H101.499C101.394 283.775 101.291 283.812 101.211 283.88C101.13 283.949 101.077 284.044 101.061 284.148L100.204 288.896C100.185 289.014 100.192 289.136 100.224 289.251C100.256 289.367 100.313 289.474 100.391 289.566C100.468 289.657 100.565 289.731 100.674 289.781C100.783 289.832 100.901 289.858 101.021 289.859C103.139 289.819 106.194 289.693 108.856 289.693C111.97 289.693 113.67 289.865 117.322 289.865C119.527 289.865 120.045 287.634 119.108 287.428C114.865 286.512 112.415 286.412 108.684 284.168C108.287 283.925 107.834 283.79 107.369 283.776Z" fill="#263238"/>
<path opacity="0.2" d="M107.428 271.95H102.05V278.371H107.428V271.95Z" fill="black"/>
<path opacity="0.2" d="M66.5461 266.387L71.9178 266.964L69.9723 273.671L64.74 272.615L66.5461 266.387Z" fill="black"/>
<path d="M98.584 148.128C98.584 148.128 95.6159 188.725 92.9599 204.116C90.0317 220.975 72.9935 272.595 72.9935 272.595L63.2327 270.809C63.2327 270.809 75.5366 222.337 76.8978 205.644C78.3785 187.53 80.158 150.193 80.158 150.193L98.584 148.128Z" fill="#B3B3FF"/>
<path opacity="0.3" d="M93.5841 164.994C94.1153 162.762 95.3371 165.571 96.7581 170.438C95.6824 182.483 94.2813 196.434 92.9401 204.123C92.6413 205.843 92.1897 207.928 91.6121 210.292C92.1233 193.107 92.1433 171.029 93.5841 164.994Z" fill="black"/>
<path d="M108.723 147.025C108.723 147.025 112.621 187.835 112.754 204.229C112.893 221.287 109.381 277.13 109.381 277.13H100.264C100.264 277.13 97.5283 222.283 96.3929 205.53C95.1512 187.27 89.9255 149.09 89.9255 149.09L108.723 147.025Z" fill="#B3B3FF"/>
<path d="M75.032 269.308C75.0719 269.308 73.4982 272.847 73.4982 272.847L62.5156 270.855L63.1796 267.568L75.032 269.308Z" fill="#263238"/>
<path d="M110.974 273.498C111.014 273.498 110.622 277.283 110.622 277.283H99.5467L99.0952 273.91L110.974 273.498Z" fill="#263238"/>
<path d="M80.4236 110.652C79.6932 112.066 78.8897 113.554 78.1593 115.021L75.9283 119.443C75.2045 120.917 74.4941 122.398 73.8101 123.879C73.1262 125.359 72.4821 126.834 71.931 128.308L71.8779 125.984C72.266 127.177 72.7318 128.344 73.2723 129.476C73.5312 130.061 73.8632 130.618 74.1488 131.196C74.4343 131.774 74.8128 132.325 75.1514 132.869C75.8559 133.995 76.6183 135.083 77.4356 136.13C77.8473 136.654 78.2589 137.192 78.6972 137.697C79.1354 138.201 79.6135 138.726 80.0252 139.157L80.158 139.304C80.4639 139.639 80.6402 140.073 80.6553 140.527C80.6705 140.981 80.5235 141.426 80.2406 141.782C79.9578 142.137 79.5576 142.38 79.1117 142.468C78.6659 142.555 78.2035 142.481 77.8074 142.258C77.1211 141.872 76.4561 141.448 75.8154 140.99C75.1514 140.552 74.5671 140.094 73.9695 139.609C72.7732 138.628 71.6502 137.56 70.6096 136.415C69.5474 135.251 68.5814 134.003 67.7212 132.683C66.8374 131.339 66.0689 129.921 65.4238 128.447C65.1397 127.821 65.0902 127.114 65.2844 126.455L65.3773 126.143C65.882 124.41 66.4464 122.73 67.0705 121.083C67.6947 119.437 68.3587 117.823 69.0625 116.236C69.7664 114.649 70.5034 113.082 71.2803 111.535C72.0572 109.988 72.8407 108.474 73.7371 106.927C74.2325 106.041 75.0573 105.387 76.0322 105.106C77.0072 104.826 78.0536 104.941 78.944 105.427C79.8345 105.914 80.497 106.732 80.7877 107.704C81.0785 108.676 80.9738 109.723 80.4966 110.619L80.4236 110.652Z" fill="#FF8B7B"/>
<path d="M84.2349 108.288C84.5005 113.354 78.7503 122.657 78.7503 122.657L66.9111 116.741C68.3499 112.544 70.5765 108.661 73.4715 105.3C79.733 98.381 83.9892 103.64 84.2349 108.288Z" fill="#263238"/>
<path d="M76.2139 141.309L78.5976 145.293L83.5577 142.119C82.6914 140.566 81.3346 139.345 79.6999 138.646C79.3219 138.525 78.9131 138.544 78.5477 138.699C78.1822 138.853 77.8843 139.134 77.7079 139.489L76.2139 141.309Z" fill="#FF8B7B"/>
<path d="M80.583 146.993L82.8871 146.561C83.0811 146.525 83.266 146.452 83.4312 146.344C83.5965 146.236 83.7388 146.097 83.8499 145.934C83.961 145.771 84.0388 145.587 84.0786 145.394C84.1185 145.201 84.1198 145.002 84.0823 144.808L83.5577 142.152L78.5977 145.326L78.9297 146.13C79.0655 146.441 79.3035 146.696 79.6042 146.853C79.9049 147.01 80.2503 147.059 80.583 146.993Z" fill="#FF8B7B"/>
<path d="M94.5735 82.8299C94.62 83.2615 94.8922 83.6001 95.1711 83.5735C95.45 83.547 95.6359 83.1818 95.5828 82.7502C95.5297 82.3186 95.2641 81.9799 94.9852 81.9999C94.7063 82.0198 94.5204 82.3916 94.5735 82.8299Z" fill="#263238"/>
<path d="M94.8523 83.6006C95.5239 84.8902 96.361 86.0867 97.3423 87.1596C96.6783 87.9365 95.3503 87.7107 95.3503 87.7107L94.8523 83.6006Z" fill="#FF5652"/>
<path d="M92.7143 80.5397C92.7488 80.5448 92.7841 80.5421 92.8174 80.5318C92.8507 80.5214 92.8813 80.5037 92.9069 80.4799C93.1371 80.2643 93.4167 80.1086 93.7212 80.0264C94.0257 79.9442 94.3457 79.938 94.6532 80.0085C94.6846 80.0185 94.7177 80.022 94.7504 80.0186C94.7832 80.0152 94.8149 80.0051 94.8436 79.9889C94.8723 79.9727 94.8973 79.9507 94.9171 79.9244C94.9369 79.898 94.951 79.8679 94.9586 79.8358C94.9752 79.7699 94.9659 79.7 94.9326 79.6407C94.8992 79.5814 94.8444 79.5372 94.7793 79.5171C94.3911 79.4245 93.9861 79.4281 93.5996 79.5276C93.2131 79.6271 92.8568 79.8195 92.5616 80.0882C92.5369 80.1117 92.5172 80.1401 92.5038 80.1714C92.4903 80.2028 92.4834 80.2366 92.4834 80.2708C92.4834 80.3049 92.4903 80.3387 92.5038 80.3701C92.5172 80.4015 92.5369 80.4298 92.5616 80.4534C92.58 80.4772 92.603 80.4971 92.6292 80.512C92.6554 80.5268 92.6844 80.5362 92.7143 80.5397Z" fill="#263238"/>
<path d="M81.1873 87.6377C82.4555 91.4823 84.1421 98.5671 81.7384 101.409C81.7384 101.409 83.3187 105.28 90.5961 104.663C98.6106 103.999 93.9161 100.38 93.9161 100.38C89.4142 99.7159 89.1088 96.4689 89.4806 93.368L81.1873 87.6377Z" fill="#FF8B7B"/>
<path d="M80.0186 102.81C79.2683 101.608 78.4317 100.234 79.8526 99.7225C81.413 99.1581 90.1778 98.2418 93.2986 99.012C96.4194 99.7822 95.782 102.332 95.782 102.332L80.0186 102.81Z" fill="#B3B3FF"/>
<path d="M105.682 104.43C106.824 105.479 108.059 106.641 109.288 107.704C110.516 108.766 111.758 109.855 113.006 110.904C114.254 111.953 115.529 112.943 116.811 113.905C118.092 114.868 119.394 115.745 120.695 116.561L118.039 116.309C119.143 116.015 120.187 115.532 121.127 114.881C122.224 114.114 123.243 113.24 124.168 112.272C125.165 111.252 126.098 110.172 126.963 109.038C127.408 108.461 127.853 107.876 128.291 107.272C128.73 106.668 129.128 106.03 129.493 105.473L129.566 105.366C129.818 104.981 130.201 104.699 130.643 104.573C131.086 104.446 131.559 104.482 131.977 104.676C132.395 104.869 132.729 105.206 132.919 105.625C133.11 106.045 133.142 106.518 133.012 106.96C132.76 107.823 132.494 108.56 132.189 109.33C131.884 110.101 131.565 110.858 131.206 111.601C130.479 113.118 129.629 114.573 128.663 115.95C127.65 117.411 126.468 118.748 125.144 119.934C123.678 121.243 121.977 122.262 120.131 122.936C119.734 123.075 119.314 123.135 118.895 123.111C118.476 123.087 118.065 122.98 117.687 122.796L117.468 122.683C115.819 121.873 114.219 120.969 112.674 119.974C111.167 118.998 109.706 117.982 108.298 116.893C106.891 115.804 105.529 114.702 104.201 113.573C102.873 112.445 101.598 111.263 100.304 109.941C99.6147 109.223 99.2308 108.265 99.2324 107.27C99.2341 106.274 99.6213 105.318 100.313 104.601C101.004 103.885 101.946 103.464 102.941 103.427C103.936 103.391 104.906 103.74 105.649 104.404L105.682 104.43Z" fill="#FF8B7B"/>
<path d="M101.625 100.984C101.625 100.984 108.318 107.478 109.095 147.643C98.3916 150.239 88.0929 151.195 80.1382 150.186C79.7597 145.146 79.1953 127.657 74.0825 109.217C73.8629 108.441 73.8071 107.627 73.9187 106.828C74.0303 106.028 74.3069 105.261 74.7308 104.574C75.1547 103.887 75.7168 103.296 76.3814 102.838C77.0459 102.38 77.7984 102.065 78.5911 101.913C79.607 101.714 80.6761 101.535 81.7385 101.395C85.7745 100.818 89.8405 100.474 93.9162 100.366C96.4974 100.387 99.0737 100.594 101.625 100.984Z" fill="#263238"/>
<path d="M96.4327 107.983C97.0967 113.009 105.729 122.671 105.729 122.671L115.974 112.047C112.931 108.851 109.64 105.901 106.134 103.222C98.6239 97.6112 95.8351 103.322 96.4327 107.983Z" fill="#263238"/>
<path d="M132.348 108.726L135.775 105.586L131.671 101.369C130.314 102.525 129.379 104.099 129.015 105.845C128.975 106.243 129.081 106.643 129.313 106.971C129.545 107.298 129.887 107.53 130.277 107.624L132.348 108.726Z" fill="#FF8B7B"/>
<path d="M137.036 103.301L136.153 101.13C136.078 100.944 135.967 100.774 135.825 100.632C135.684 100.489 135.515 100.377 135.33 100.301C135.144 100.224 134.945 100.186 134.744 100.189C134.543 100.191 134.345 100.233 134.161 100.313L131.645 101.369L135.748 105.586L136.465 105.101C136.753 104.912 136.967 104.631 137.071 104.303C137.175 103.975 137.163 103.621 137.036 103.301Z" fill="#FF8B7B"/>
<path d="M80.1647 83.0561C81.1275 88.3681 81.4197 91.5155 84.4077 94.0453C88.903 97.85 95.1047 94.8886 95.6957 89.4637C96.2534 84.5767 94.5868 76.7083 89.1818 74.9952C83.7769 73.282 79.2019 77.7441 80.1647 83.0561Z" fill="#FF8B7B"/>
<path d="M90.6358 84.9682C92.5017 85.3932 93.9558 83.2352 94.155 82.6243C93.2454 82.7106 91.6318 82.2458 91.3131 81.8341C92.3091 81.9205 93.2719 80.692 93.3914 80.2206C92.3347 80.0165 91.3988 79.4093 90.7819 78.5274C92.3954 78.4942 94.3343 75.6523 92.5614 73.1092C90.7886 70.566 83.3783 72.6975 82.3358 70.8848C80.7821 71.7878 82.1632 72.9896 82.1632 72.9896C82.1632 72.9896 71.6786 74.9816 76.5126 79.0254C72.9668 79.3441 72.4688 83.534 75.4236 85.6654C78.3784 87.7968 78.5311 89.2045 77.3558 89.0319C77.8273 89.9349 79.9322 90.0544 80.0517 89.178C80.5497 91.0172 81.9839 93.5072 85.2906 93.1022C88.5974 92.6972 91.8377 88.0691 90.6358 84.9682Z" fill="#263238"/>
<path d="M77.4291 78.4076C74.9324 78.7529 73.797 77.3452 74.4211 76.1035C71.3269 77.6838 74.7067 81.1765 77.4291 78.4076Z" fill="#263238"/>
<path d="M88.053 84.1577C88.4827 85.2705 89.2427 86.2252 90.2309 86.8934C91.5589 87.7699 92.7608 86.8934 92.535 85.5654C92.3292 84.3436 91.3929 82.4114 90.0118 82.0661C89.7258 81.9722 89.4189 81.962 89.1272 82.0366C88.8356 82.1113 88.5713 82.2677 88.3656 82.4874C88.1598 82.7071 88.0211 82.9811 87.9657 83.277C87.9103 83.5729 87.9406 83.8784 88.053 84.1577Z" fill="#FF8B7B"/>
<path d="M256.822 271.313C251.908 259.72 249.923 246.081 255.547 246.646C261.317 247.204 260.64 267.761 261.576 270.019C259.777 271.566 256.822 271.313 256.822 271.313Z" fill="#4E4ECE"/>
<path d="M258.416 249.315C257.207 253.738 255.926 260.57 254.949 266.36C255.507 268.02 256.138 269.68 256.822 271.314C256.822 271.314 259.77 271.566 261.583 270.019C260.839 268.239 261.105 255.066 258.416 249.315Z" fill="#263238"/>
<path d="M258.442 269.189C256.902 244.554 261.098 221.719 272.147 222.748C281.629 223.638 267.805 265.112 268.07 269.892C263.728 271.579 258.442 269.189 258.442 269.189Z" fill="#4E4ECE"/>
<path d="M265.6 269.029C267.333 251.32 276.676 230.656 280.686 237.562C285.779 246.327 272.718 267.203 272.366 270.636C269.099 271.339 265.6 269.029 265.6 269.029Z" fill="#4E4ECE"/>
<path d="M263.854 229.329C262.731 229.143 262.107 228.446 262.18 227.456C262.26 226.341 263.176 225.232 264.026 225.219C264.438 225.219 265.128 225.431 265.301 226.965L264.637 227.045C264.557 226.314 264.338 225.883 264.046 225.883C263.595 225.883 262.904 226.706 262.851 227.503C262.804 228.167 263.176 228.539 263.966 228.672L263.854 229.329Z" fill="#4E4ECE"/>
<path d="M275.779 233.784C275.296 233.745 274.835 233.568 274.451 233.273L274.81 232.722C275.427 233.12 275.905 233.226 276.091 233.001C276.37 232.642 276.177 231.593 275.6 231.042C275.135 230.597 274.591 230.63 273.986 231.161L273.555 230.657C273.71 230.482 273.899 230.34 274.111 230.24C274.323 230.14 274.553 230.084 274.786 230.075C275.02 230.067 275.254 230.106 275.472 230.189C275.691 230.273 275.89 230.401 276.058 230.564C276.868 231.334 277.14 232.742 276.609 233.412C276.511 233.537 276.384 233.635 276.24 233.7C276.095 233.765 275.937 233.794 275.779 233.784Z" fill="#4E4ECE"/>
<path d="M259.504 243.81C259.102 243.839 258.704 243.72 258.383 243.475C258.063 243.231 257.843 242.878 257.765 242.482C257.499 241.4 258.03 240.065 258.84 239.787C259.219 239.66 259.949 239.647 260.587 241.061L259.976 241.34C259.677 240.676 259.312 240.318 259.053 240.417C258.628 240.563 258.223 241.553 258.389 242.323C258.542 242.987 259.053 243.213 259.81 243.093L259.91 243.757C259.776 243.787 259.641 243.804 259.504 243.81Z" fill="#4E4ECE"/>
<path d="M252.433 257.562C252.109 257.569 251.791 257.478 251.52 257.302C251.248 257.125 251.037 256.871 250.912 256.572C250.448 255.556 250.72 254.142 251.457 253.717C251.809 253.518 252.526 253.372 253.416 254.647L252.871 255.025C252.446 254.421 252.041 254.149 251.789 254.295C251.397 254.52 251.185 255.57 251.517 256.287C251.789 256.878 252.307 257.037 253.057 256.771L253.276 257.402C253.007 257.504 252.721 257.558 252.433 257.562Z" fill="#4E4ECE"/>
<path d="M264.199 237.516C264.13 237.516 264.063 237.495 264.006 237.456C263.594 237.228 263.278 236.858 263.117 236.415C262.956 235.972 262.96 235.486 263.13 235.046C263.322 234.605 263.651 234.238 264.069 233.998C264.486 233.759 264.97 233.661 265.447 233.718C265.859 233.791 266.822 234.156 266.888 235.922C266.888 236.011 266.853 236.095 266.791 236.157C266.729 236.22 266.644 236.254 266.556 236.254C266.468 236.254 266.384 236.22 266.321 236.157C266.259 236.095 266.224 236.011 266.224 235.922C266.184 235 265.872 234.442 265.328 234.342C264.997 234.316 264.667 234.393 264.382 234.563C264.098 234.733 263.874 234.988 263.741 235.292C263.502 235.856 263.741 236.427 264.405 236.899C264.463 236.939 264.507 236.997 264.529 237.064C264.552 237.131 264.553 237.204 264.531 237.272C264.51 237.339 264.467 237.398 264.41 237.44C264.352 237.481 264.283 237.503 264.212 237.503L264.199 237.516Z" fill="white"/>
<path d="M272.067 255.437C271.991 255.438 271.917 255.412 271.859 255.363C271.8 255.314 271.761 255.246 271.749 255.171C271.739 255.129 271.738 255.085 271.745 255.042C271.753 255 271.769 254.959 271.792 254.922C271.816 254.886 271.846 254.854 271.882 254.83C271.918 254.805 271.958 254.788 272.001 254.78C272.904 254.594 273.402 254.189 273.415 253.638C273.385 253.307 273.254 252.995 273.039 252.742C272.823 252.49 272.535 252.311 272.213 252.23C271.616 252.084 271.085 252.409 270.733 253.14C270.714 253.179 270.687 253.214 270.654 253.243C270.621 253.272 270.583 253.294 270.542 253.308C270.501 253.322 270.457 253.328 270.413 253.325C270.37 253.323 270.327 253.311 270.288 253.292C270.249 253.273 270.214 253.246 270.185 253.214C270.156 253.181 270.134 253.143 270.119 253.101C270.105 253.06 270.099 253.016 270.102 252.973C270.105 252.929 270.116 252.887 270.135 252.847C270.298 252.407 270.611 252.038 271.019 251.806C271.427 251.574 271.904 251.494 272.366 251.579C272.835 251.695 273.254 251.958 273.563 252.33C273.871 252.701 274.052 253.162 274.079 253.644C274.079 254.063 273.867 255.072 272.14 255.43L272.067 255.437Z" fill="white"/>
<path d="M281.403 249.84C281.018 249.84 280.507 249.614 279.936 248.757L280.487 248.386C280.899 248.997 281.29 249.275 281.549 249.143C281.948 248.923 282.213 247.874 281.861 247.151C281.609 246.56 281.091 246.387 280.334 246.633L280.128 246.002C281.204 245.65 282.081 246.002 282.472 246.892C282.917 247.914 282.618 249.322 281.868 249.727C281.726 249.805 281.565 249.844 281.403 249.84Z" fill="#4E4ECE"/>
<path d="M279.424 275.53C279.429 271.986 278.159 268.559 275.846 265.875C276.073 265.842 276.28 265.729 276.431 265.556C276.582 265.383 276.667 265.162 276.669 264.932C276.667 264.673 276.563 264.424 276.379 264.242C276.195 264.059 275.946 263.956 275.686 263.956H253.455C253.213 263.959 252.981 264.053 252.805 264.219C252.628 264.385 252.52 264.611 252.502 264.852C252.484 265.094 252.556 265.333 252.706 265.524C252.855 265.714 253.071 265.842 253.309 265.882C251.855 267.57 250.801 269.565 250.224 271.718C249.648 273.87 249.564 276.125 249.98 278.314C250.395 280.504 251.299 282.571 252.624 284.363C253.949 286.155 255.661 287.625 257.632 288.663C257.417 288.774 257.246 288.954 257.146 289.174C257.046 289.394 257.022 289.641 257.08 289.876C257.138 290.11 257.272 290.319 257.463 290.468C257.653 290.616 257.888 290.697 258.13 290.695H271.005C271.29 290.694 271.562 290.58 271.764 290.378C271.965 290.177 272.079 289.904 272.081 289.62C272.08 289.423 272.025 289.23 271.924 289.062C271.822 288.893 271.677 288.756 271.503 288.663C273.894 287.403 275.895 285.513 277.291 283.199C278.687 280.884 279.425 278.232 279.424 275.53Z" fill="#263238"/>
</svg>
